# xmcd
#
# Track frame offsets: 
#        150
#        25678
#        48629
#        70995
#        80324
#        102434
#        125116
#        144229
#        165008
#        187519
#        203772
#        225113
#        246667
#        271039
#
# Disc length: 3869 seconds
#
# Revision: 0
# Processed by: cddbd v1.5.2PL0 Copyright (c) Steve Scherf et al.
# Submitted via: ExactAudioCopy v0.99pb4
#
DISCID=ac0f1b0e
DTITLE=Over The Rhine - Good Dog Bad Dog
DYEAR=2010
DGENRE=Indie
TTITLE0=Latter Days
TTITLE1=All I Need
TTITLE2=Etcetera Whatever
TTITLE3=I Will Not Eat The Darkness
TTITLE4=Faithfully Dangerous
TTITLE5=The Seahorse
TTITLE6=Everyman's Daughter
TTITLE7=Gospel Number
TTITLE8=Poughkeepsie
TTITLE9=Willoughby
TTITLE10=Jack's Valentine
TTITLE11=Happy To Be So
TTITLE12=Go Down Easy
TTITLE13=It's Never Quite What It Seems
EXTD=
EXTT0=
EXTT1=
EXTT2=
EXTT3=
EXTT4=
EXTT5=
EXTT6=
EXTT7=
EXTT8=
EXTT9=
EXTT10=
EXTT11=
EXTT12=
EXTT13=
PLAYORDER=
